<?xml version="1.0" encoding="us-ascii" standalone="no"?><svg xmlns="http://www.w3.org/2000/svg" xmlns:xlink="http://www.w3.org/1999/xlink" contentStyleType="text/css" height="659px" preserveAspectRatio="none" style="width:570px;height:659px;background:#FFFFFF;" version="1.1" viewBox="0 0 570 659" width="570px" zoomAndPan="magnify"><defs/><g><!--class hands--><g id="elem_hands"><rect codeLine="2" fill="#F1F1F1" height="80.5938" id="hands" rx="2.5" ry="2.5" style="stroke:#181818;stroke-width:0.5;" width="75" x="162.5" y="7"/><ellipse cx="177.5" cy="23" fill="#ADD1B2" rx="11" ry="11" style="stroke:#181818;stroke-width:1.0;"/><path d="M180.4688,28.6406 Q179.8906,28.9375 179.25,29.0781 Q178.6094,29.2344 177.9063,29.2344 Q175.4063,29.2344 174.0781,27.5938 Q172.7656,25.9375 172.7656,22.8125 Q172.7656,19.6875 174.0781,18.0313 Q175.4063,16.375 177.9063,16.375 Q178.6094,16.375 179.25,16.5313 Q179.9063,16.6875 180.4688,16.9844 L180.4688,19.7031 Q179.8438,19.125 179.25,18.8594 Q178.6563,18.5781 178.0313,18.5781 Q176.6875,18.5781 176,19.6563 Q175.3125,20.7188 175.3125,22.8125 Q175.3125,24.9063 176,25.9844 Q176.6875,27.0469 178.0313,27.0469 Q178.6563,27.0469 179.25,26.7813 Q179.8438,26.5 180.4688,25.9219 L180.4688,28.6406 Z " fill="#000000"/><text fill="#000000" font-family="sans-serif" font-size="14" lengthAdjust="spacing" textLength="43" x="191.5" y="27.8467">hands</text><line style="stroke:#181818;stroke-width:0.5;" x1="163.5" x2="236.5" y1="39" y2="39"/><text fill="#000000" font-family="sans-serif" font-size="14" lengthAdjust="spacing" textLength="57" x="168.5" y="55.9951">contract</text><text fill="#000000" font-family="sans-serif" font-size="14" lengthAdjust="spacing" textLength="37" x="168.5" y="72.292">index</text><line style="stroke:#181818;stroke-width:0.5;" x1="163.5" x2="236.5" y1="79.5938" y2="79.5938"/></g><!--class players--><g id="elem_players"><rect codeLine="13" fill="#F1F1F1" height="64.2969" id="players" rx="2.5" ry="2.5" style="stroke:#181818;stroke-width:0.5;" width="81" x="86.5" y="306"/><ellipse cx="101.5" cy="322" fill="#ADD1B2" rx="11" ry="11" style="stroke:#181818;stroke-width:1.0;"/><path d="M104.4688,327.6406 Q103.8906,327.9375 103.25,328.0781 Q102.6094,328.2344 101.9063,328.2344 Q99.4063,328.2344 98.0781,326.5938 Q96.7656,324.9375 96.7656,321.8125 Q96.7656,318.6875 98.0781,317.0313 Q99.4063,315.375 101.9063,315.375 Q102.6094,315.375 103.25,315.5313 Q103.9063,315.6875 104.4688,315.9844 L104.4688,318.7031 Q103.8438,318.125 103.25,317.8594 Q102.6563,317.5781 102.0313,317.5781 Q100.6875,317.5781 100,318.6563 Q99.3125,319.7188 99.3125,321.8125 Q99.3125,323.9063 100,324.9844 Q100.6875,326.0469 102.0313,326.0469 Q102.6563,326.0469 103.25,325.7813 Q103.8438,325.5 104.4688,324.9219 L104.4688,327.6406 Z " fill="#000000"/><text fill="#000000" font-family="sans-serif" font-size="14" lengthAdjust="spacing" textLength="49" x="115.5" y="326.8467">players</text><line style="stroke:#181818;stroke-width:0.5;" x1="87.5" x2="166.5" y1="338" y2="338"/><text fill="#000000" font-family="sans-serif" font-size="14" lengthAdjust="spacing" textLength="39" x="92.5" y="354.9951">name</text><line style="stroke:#181818;stroke-width:0.5;" x1="87.5" x2="166.5" y1="362.2969" y2="362.2969"/></g><!--class rounds--><g id="elem_rounds"><rect codeLine="20" fill="#F1F1F1" height="64.2969" id="rounds" rx="2.5" ry="2.5" style="stroke:#181818;stroke-width:0.5;" width="81" x="298.5" y="588"/><ellipse cx="313.5" cy="604" fill="#ADD1B2" rx="11" ry="11" style="stroke:#181818;stroke-width:1.0;"/><path d="M316.4688,609.6406 Q315.8906,609.9375 315.25,610.0781 Q314.6094,610.2344 313.9063,610.2344 Q311.4063,610.2344 310.0781,608.5938 Q308.7656,606.9375 308.7656,603.8125 Q308.7656,600.6875 310.0781,599.0313 Q311.4063,597.375 313.9063,597.375 Q314.6094,597.375 315.25,597.5313 Q315.9063,597.6875 316.4688,597.9844 L316.4688,600.7031 Q315.8438,600.125 315.25,599.8594 Q314.6563,599.5781 314.0313,599.5781 Q312.6875,599.5781 312,600.6563 Q311.3125,601.7188 311.3125,603.8125 Q311.3125,605.9063 312,606.9844 Q312.6875,608.0469 314.0313,608.0469 Q314.6563,608.0469 315.25,607.7813 Q315.8438,607.5 316.4688,606.9219 L316.4688,609.6406 Z " fill="#000000"/><text fill="#000000" font-family="sans-serif" font-size="14" lengthAdjust="spacing" textLength="49" x="327.5" y="608.8467">rounds</text><line style="stroke:#181818;stroke-width:0.5;" x1="299.5" x2="378.5" y1="620" y2="620"/><text fill="#000000" font-family="sans-serif" font-size="14" lengthAdjust="spacing" textLength="30" x="304.5" y="636.9951">time</text><line style="stroke:#181818;stroke-width:0.5;" x1="299.5" x2="378.5" y1="644.2969" y2="644.2969"/></g><!--class points--><g id="elem_points"><rect codeLine="16" fill="#F1F1F1" height="64.2969" id="points" rx="2.5" ry="2.5" style="stroke:#181818;stroke-width:0.5;" width="75" x="89.5" y="165"/><ellipse cx="104.5" cy="181" fill="#ADD1B2" rx="11" ry="11" style="stroke:#181818;stroke-width:1.0;"/><path d="M107.4688,186.6406 Q106.8906,186.9375 106.25,187.0781 Q105.6094,187.2344 104.9063,187.2344 Q102.4063,187.2344 101.0781,185.5938 Q99.7656,183.9375 99.7656,180.8125 Q99.7656,177.6875 101.0781,176.0313 Q102.4063,174.375 104.9063,174.375 Q105.6094,174.375 106.25,174.5313 Q106.9063,174.6875 107.4688,174.9844 L107.4688,177.7031 Q106.8438,177.125 106.25,176.8594 Q105.6563,176.5781 105.0313,176.5781 Q103.6875,176.5781 103,177.6563 Q102.3125,178.7188 102.3125,180.8125 Q102.3125,182.9063 103,183.9844 Q103.6875,185.0469 105.0313,185.0469 Q105.6563,185.0469 106.25,184.7813 Q106.8438,184.5 107.4688,183.9219 L107.4688,186.6406 Z " fill="#000000"/><text fill="#000000" font-family="sans-serif" font-size="14" lengthAdjust="spacing" textLength="43" x="118.5" y="185.8467">points</text><line style="stroke:#181818;stroke-width:0.5;" x1="90.5" x2="163.5" y1="197" y2="197"/><text fill="#000000" font-family="sans-serif" font-size="14" lengthAdjust="spacing" textLength="39" x="95.5" y="213.9951">score</text><line style="stroke:#181818;stroke-width:0.5;" x1="90.5" x2="163.5" y1="221.2969" y2="221.2969"/></g><!--class positions--><g id="elem_positions"><rect codeLine="9" fill="#F1F1F1" height="64.2969" id="positions" rx="2.5" ry="2.5" style="stroke:#181818;stroke-width:0.5;" width="95" x="171.5" y="447"/><ellipse cx="186.5" cy="463" fill="#ADD1B2" rx="11" ry="11" style="stroke:#181818;stroke-width:1.0;"/><path d="M189.4688,468.6406 Q188.8906,468.9375 188.25,469.0781 Q187.6094,469.2344 186.9063,469.2344 Q184.4063,469.2344 183.0781,467.5938 Q181.7656,465.9375 181.7656,462.8125 Q181.7656,459.6875 183.0781,458.0313 Q184.4063,456.375 186.9063,456.375 Q187.6094,456.375 188.25,456.5313 Q188.9063,456.6875 189.4688,456.9844 L189.4688,459.7031 Q188.8438,459.125 188.25,458.8594 Q187.6563,458.5781 187.0313,458.5781 Q185.6875,458.5781 185,459.6563 Q184.3125,460.7188 184.3125,462.8125 Q184.3125,464.9063 185,465.9844 Q185.6875,467.0469 187.0313,467.0469 Q187.6563,467.0469 188.25,466.7813 Q188.8438,466.5 189.4688,465.9219 L189.4688,468.6406 Z " fill="#000000"/><text fill="#000000" font-family="sans-serif" font-size="14" lengthAdjust="spacing" textLength="63" x="200.5" y="467.8467">positions</text><line style="stroke:#181818;stroke-width:0.5;" x1="172.5" x2="265.5" y1="479" y2="479"/><text fill="#000000" font-family="sans-serif" font-size="14" lengthAdjust="spacing" textLength="73" x="177.5" y="495.9951">positionno</text><line style="stroke:#181818;stroke-width:0.5;" x1="172.5" x2="265.5" y1="503.2969" y2="503.2969"/></g><!--link hands to players--><g id="link_hands_players"><path codeLine="5" d="M162.15,57.85 C115.35,71.87 39.18,103.54 17,165 C7.35,191.76 6,202.77 17,229 C31.09,262.56 56.4815,287.3083 81.6615,306.5383 " fill="none" id="hands-to-players" style="stroke:#181818;stroke-width:1.0;"/><polygon fill="#181818" points="86.43,310.18,81.7051,301.5385,82.4563,307.1453,76.8495,307.8965,86.43,310.18" style="stroke:#181818;stroke-width:1.0;"/><polygon fill="#000000" points="20.4604,201.8235,26.0417,194.1228,20.4495,192.3129,20.4604,201.8235" style="stroke:#000000;stroke-width:1.0;"/><text fill="#000000" font-family="sans-serif" font-size="13" lengthAdjust="spacing" textLength="40" x="31" y="201.5669">dealer</text><text fill="#000000" font-family="sans-serif" font-size="13" lengthAdjust="spacing" textLength="8" x="70.491" y="300.9409">1</text></g><!--link hands to players--><g id="link_hands_players"><path codeLine="7" d="M208.7,88.02 C210.49,97.77 212.1,108.22 213,118 C218.56,177.93 202.49,250.16 189,276 C183.27,286.98 179.0926,292.9374 170.2926,301.7374 " fill="none" id="hands-to-players-1" style="stroke:#181818;stroke-width:1.0;"/><polygon fill="#181818" points="166.05,305.98,175.2424,302.4445,169.5855,302.4445,169.5855,296.7876,166.05,305.98" style="stroke:#181818;stroke-width:1.0;"/><polygon fill="#000000" points="217.1156,201.9876,221.6081,193.6049,215.8229,192.5653,217.1156,201.9876" style="stroke:#000000;stroke-width:1.0;"/><text fill="#000000" font-family="sans-serif" font-size="13" lengthAdjust="spacing" textLength="84" x="227" y="201.5669">activePlayers</text><text fill="#000000" font-family="sans-serif" font-size="13" lengthAdjust="spacing" textLength="7" x="166.3822" y="294.879">*</text></g><!--link hands to rounds--><g id="link_hands_rounds"><path codeLine="6" d="M237.84,59.48 C292.49,77.94 387,120.74 387,196 C387,196 387,196 387,480 C387,518.68 372.8686,554.8911 359.1486,582.3911 " fill="none" id="hands-to-rounds" style="stroke:#181818;stroke-width:1.0;"/><polygon fill="#181818" points="356.47,587.76,364.0672,581.4924,358.7022,583.2859,356.9086,577.9209,356.47,587.76" style="stroke:#181818;stroke-width:1.0;"/><polygon fill="#000000" points="393.1299,342.9371,393.9488,333.4618,388.223,334.7901,393.1299,342.9371" style="stroke:#000000;stroke-width:1.0;"/><text fill="#000000" font-family="sans-serif" font-size="13" lengthAdjust="spacing" textLength="37" x="401" y="342.5669">round</text><text fill="#000000" font-family="sans-serif" font-size="13" lengthAdjust="spacing" textLength="8" x="351.1219" y="576.9869">1</text></g><!--link rounds to hands--><g id="link_rounds_hands"><path codeLine="23" d="M379.72,605.93 C430.01,586.94 509,546.53 509,480 C509,196 509,196 509,196 C509,76.96 325.9215,54.2201 243.5715,49.8201 " fill="none" id="rounds-to-hands" style="stroke:#181818;stroke-width:1.0;"/><polygon fill="#181818" points="237.58,49.5,246.3538,53.9745,242.5729,49.7668,246.7806,45.9859,237.58,49.5" style="stroke:#181818;stroke-width:1.0;"/><polygon fill="#000000" points="512.811,333.2098,512.1073,342.6943,517.8165,341.2966,512.811,333.2098" style="stroke:#000000;stroke-width:1.0;"/><text fill="#000000" font-family="sans-serif" font-size="13" lengthAdjust="spacing" textLength="39" x="523" y="342.5669">hands</text><text fill="#000000" font-family="sans-serif" font-size="13" lengthAdjust="spacing" textLength="7" x="245.4109" y="45.5698">*</text></g><!--link hands to points--><g id="link_hands_points"><path codeLine="8" d="M162.42,56.9 C131.07,66.12 88.35,84.3 68,118 C56.68,136.75 67.1543,152.5526 84.8943,167.4426 " fill="none" id="hands-to-points" style="stroke:#181818;stroke-width:1.0;"/><polygon fill="#181818" points="89.49,171.3,85.168,162.4501,85.6602,168.0855,80.0248,168.5777,89.49,171.3" style="stroke:#181818;stroke-width:1.0;"/><polygon fill="#000000" points="70.1291,130.66,77.7288,124.9421,72.9165,121.5671,70.1291,130.66" style="stroke:#000000;stroke-width:1.0;"/><text fill="#000000" font-family="sans-serif" font-size="13" lengthAdjust="spacing" textLength="39" x="82" y="131.0669">points</text><text fill="#000000" font-family="sans-serif" font-size="13" lengthAdjust="spacing" textLength="7" x="74.4162" y="161.8145">*</text></g><!--link points to hands--><g id="link_points_hands"><path codeLine="19" d="M140.25,164.99 C146.57,150.58 154.41,133.29 162,118 C166.84,108.27 169.4284,103.1982 174.6884,93.5482 " fill="none" id="points-to-hands" style="stroke:#181818;stroke-width:1.0;"/><polygon fill="#181818" points="177.56,88.28,169.7405,94.2679,175.167,92.6702,176.7648,98.0967,177.56,88.28" style="stroke:#181818;stroke-width:1.0;"/><polygon fill="#000000" points="169.1712,122.0624,162.5961,128.9341,167.8909,131.4864,169.1712,122.0624" style="stroke:#000000;stroke-width:1.0;"/><text fill="#000000" font-family="sans-serif" font-size="13" lengthAdjust="spacing" textLength="32" x="176" y="131.0669">hand</text><text fill="#000000" font-family="sans-serif" font-size="13" lengthAdjust="spacing" textLength="8" x="165.5114" y="107.781">1</text></g><!--link positions to players--><g id="link_positions_players"><path codeLine="11" d="M210.94,446.88 C206.22,431.96 199.33,414.27 190,400 C183.01,389.29 178.1207,383.2337 168.9307,374.2937 " fill="none" id="positions-to-players" style="stroke:#181818;stroke-width:1.0;"/><polygon fill="#181818" points="164.63,370.11,168.2919,379.2528,168.2139,373.5964,173.8703,373.5185,164.63,370.11" style="stroke:#181818;stroke-width:1.0;"/><polygon fill="#000000" points="200.4955,404.2389,202.4826,413.5396,207.5699,410.5953,200.4955,404.2389" style="stroke:#000000;stroke-width:1.0;"/><text fill="#000000" font-family="sans-serif" font-size="13" lengthAdjust="spacing" textLength="39" x="212" y="413.0669">player</text><text fill="#000000" font-family="sans-serif" font-size="13" lengthAdjust="spacing" textLength="8" x="163.5662" y="390.3295">1</text></g><!--link players to positions--><g id="link_players_positions"><path codeLine="15" d="M110.3,370.26 C104.7,385.22 101.73,402.89 110,417 C123.33,439.73 143.0102,452.3398 165.8402,461.7198 " fill="none" id="players-to-positions" style="stroke:#181818;stroke-width:1.0;"/><polygon fill="#181818" points="171.39,464,164.5854,456.8798,166.7651,462.0998,161.5451,464.2796,171.39,464" style="stroke:#181818;stroke-width:1.0;"/><polygon fill="#000000" points="117.5953,412.8401,115.4124,403.5834,110.3884,406.6344,117.5953,412.8401" style="stroke:#000000;stroke-width:1.0;"/><text fill="#000000" font-family="sans-serif" font-size="13" lengthAdjust="spacing" textLength="57" x="124" y="413.0669">positions</text><text fill="#000000" font-family="sans-serif" font-size="13" lengthAdjust="spacing" textLength="7" x="156.5638" y="457.609">*</text></g><!--link positions to rounds--><g id="link_positions_rounds"><path codeLine="12" d="M198.93,511.09 C191.9,526.18 187.79,544.02 197,558 C219.29,591.83 258.8076,605.7979 292.2976,612.5279 " fill="none" id="positions-to-rounds" style="stroke:#181818;stroke-width:1.0;"/><polygon fill="#181818" points="298.18,613.71,290.1445,608.0152,293.278,612.7249,288.5683,615.8584,298.18,613.71" style="stroke:#181818;stroke-width:1.0;"/><polygon fill="#000000" points="205.3862,553.2453,201.4229,544.5998,197.0982,548.5805,205.3862,553.2453" style="stroke:#000000;stroke-width:1.0;"/><text fill="#000000" font-family="sans-serif" font-size="13" lengthAdjust="spacing" textLength="37" x="211" y="554.0669">round</text><text fill="#000000" font-family="sans-serif" font-size="13" lengthAdjust="spacing" textLength="8" x="282.4766" y="608.3926">1</text></g><!--link rounds to positions--><g id="link_rounds_positions"><path codeLine="22" d="M312.16,587.91 C292.42,565.04 269.6209,538.6317 249.8509,515.7317 " fill="none" id="rounds-to-positions" style="stroke:#181818;stroke-width:1.0;"/><polygon fill="#181818" points="245.93,511.19,248.7836,520.6164,249.1974,514.9747,254.8391,515.3885,245.93,511.19" style="stroke:#181818;stroke-width:1.0;"/><polygon fill="#000000" points="287.7327,545.7816,291.4186,554.5488,295.868,550.7079,287.7327,545.7816" style="stroke:#000000;stroke-width:1.0;"/><text fill="#000000" font-family="sans-serif" font-size="13" lengthAdjust="spacing" textLength="57" x="300" y="554.0669">positions</text><text fill="#000000" font-family="sans-serif" font-size="13" lengthAdjust="spacing" textLength="7" x="243.7624" y="531.426">*</text></g><!--link points to players--><g id="link_points_players"><path codeLine="18" d="M127,229.19 C127,252.09 127,277.04 127,299.91 " fill="none" id="points-to-players" style="stroke:#181818;stroke-width:1.0;"/><polygon fill="#181818" points="127,305.91,131,296.91,127,300.91,123,296.91,127,305.91" style="stroke:#181818;stroke-width:1.0;"/><polygon fill="#000000" points="132,272.5664,134.9389,263.5213,129.0611,263.5213,132,272.5664" style="stroke:#000000;stroke-width:1.0;"/><text fill="#000000" font-family="sans-serif" font-size="13" lengthAdjust="spacing" textLength="39" x="141" y="272.0669">player</text><text fill="#000000" font-family="sans-serif" font-size="13" lengthAdjust="spacing" textLength="8" x="118.175" y="294.7945">1</text></g><!--SRC=[ZP7F2i8m38VlVOhGex23Lmzx1i4d25t0man6MqNVNljdM-SAUbgIVUINR_CKWF56Va935vhGOH07B4pAZEWzw2louBKgJpY14GuEJQX6bWTwBdtNzQ2F6lGquejS8WR2aHpqiAUStCkQLEsOmtRJ9za-w9m7RLWiXyJcAa95PX9lWnMEGckToDomR5wqL7APabjaGsSEBpjKlIr-_MfGIJIksweaIrNfUYEEri7Fux-mvNV6eaegHgfI2pPUFVT_7BrdDscHUGC0]--></g></svg>