<?xml version="1.0" encoding="us-ascii" standalone="no"?><svg xmlns="http://www.w3.org/2000/svg" xmlns:xlink="http://www.w3.org/1999/xlink" contentStyleType="text/css" height="518px" preserveAspectRatio="none" style="width:472px;height:518px;background:#FFFFFF;" version="1.1" viewBox="0 0 472 518" width="472px" zoomAndPan="magnify"><defs/><g><!--class hands--><g id="elem_hands"><rect codeLine="2" fill="#F1F1F1" height="80.5938" id="hands" rx="2.5" ry="2.5" style="stroke:#181818;stroke-width:0.5;" width="75" x="157.4767" y="7"/><ellipse cx="172.4767" cy="23" fill="#ADD1B2" rx="11" ry="11" style="stroke:#181818;stroke-width:1.0;"/><path d="M175.4455,28.6406 Q174.8673,28.9375 174.2267,29.0781 Q173.5861,29.2344 172.883,29.2344 Q170.383,29.2344 169.0548,27.5938 Q167.7423,25.9375 167.7423,22.8125 Q167.7423,19.6875 169.0548,18.0313 Q170.383,16.375 172.883,16.375 Q173.5861,16.375 174.2267,16.5313 Q174.883,16.6875 175.4455,16.9844 L175.4455,19.7031 Q174.8205,19.125 174.2267,18.8594 Q173.633,18.5781 173.008,18.5781 Q171.6642,18.5781 170.9767,19.6563 Q170.2892,20.7188 170.2892,22.8125 Q170.2892,24.9063 170.9767,25.9844 Q171.6642,27.0469 173.008,27.0469 Q173.633,27.0469 174.2267,26.7813 Q174.8205,26.5 175.4455,25.9219 L175.4455,28.6406 Z " fill="#000000"/><text fill="#000000" font-family="sans-serif" font-size="14" lengthAdjust="spacing" textLength="43" x="186.4767" y="27.8467">hands</text><line style="stroke:#181818;stroke-width:0.5;" x1="158.4767" x2="231.4767" y1="39" y2="39"/><text fill="#000000" font-family="sans-serif" font-size="14" lengthAdjust="spacing" textLength="57" x="163.4767" y="55.9951">contract</text><text fill="#000000" font-family="sans-serif" font-size="14" lengthAdjust="spacing" textLength="37" x="163.4767" y="72.292">index</text><line style="stroke:#181818;stroke-width:0.5;" x1="158.4767" x2="231.4767" y1="79.5938" y2="79.5938"/></g><!--class players--><g id="elem_players"><rect codeLine="13" fill="#F1F1F1" height="64.2969" id="players" rx="2.5" ry="2.5" style="stroke:#181818;stroke-width:0.5;" width="81" x="164.4767" y="165"/><ellipse cx="179.4767" cy="181" fill="#ADD1B2" rx="11" ry="11" style="stroke:#181818;stroke-width:1.0;"/><path d="M182.4455,186.6406 Q181.8673,186.9375 181.2267,187.0781 Q180.5861,187.2344 179.883,187.2344 Q177.383,187.2344 176.0548,185.5938 Q174.7423,183.9375 174.7423,180.8125 Q174.7423,177.6875 176.0548,176.0313 Q177.383,174.375 179.883,174.375 Q180.5861,174.375 181.2267,174.5313 Q181.883,174.6875 182.4455,174.9844 L182.4455,177.7031 Q181.8205,177.125 181.2267,176.8594 Q180.633,176.5781 180.008,176.5781 Q178.6642,176.5781 177.9767,177.6563 Q177.2892,178.7188 177.2892,180.8125 Q177.2892,182.9063 177.9767,183.9844 Q178.6642,185.0469 180.008,185.0469 Q180.633,185.0469 181.2267,184.7813 Q181.8205,184.5 182.4455,183.9219 L182.4455,186.6406 Z " fill="#000000"/><text fill="#000000" font-family="sans-serif" font-size="14" lengthAdjust="spacing" textLength="49" x="193.4767" y="185.8467">players</text><line style="stroke:#181818;stroke-width:0.5;" x1="165.4767" x2="244.4767" y1="197" y2="197"/><text fill="#000000" font-family="sans-serif" font-size="14" lengthAdjust="spacing" textLength="39" x="170.4767" y="213.9951">name</text><line style="stroke:#181818;stroke-width:0.5;" x1="165.4767" x2="244.4767" y1="221.2969" y2="221.2969"/></g><!--class rounds--><g id="elem_rounds"><rect codeLine="20" fill="#F1F1F1" height="64.2969" id="rounds" rx="2.5" ry="2.5" style="stroke:#181818;stroke-width:0.5;" width="81" x="281.4767" y="447"/><ellipse cx="296.4767" cy="463" fill="#ADD1B2" rx="11" ry="11" style="stroke:#181818;stroke-width:1.0;"/><path d="M299.4455,468.6406 Q298.8673,468.9375 298.2267,469.0781 Q297.5861,469.2344 296.883,469.2344 Q294.383,469.2344 293.0548,467.5938 Q291.7423,465.9375 291.7423,462.8125 Q291.7423,459.6875 293.0548,458.0313 Q294.383,456.375 296.883,456.375 Q297.5861,456.375 298.2267,456.5313 Q298.883,456.6875 299.4455,456.9844 L299.4455,459.7031 Q298.8205,459.125 298.2267,458.8594 Q297.633,458.5781 297.008,458.5781 Q295.6642,458.5781 294.9767,459.6563 Q294.2892,460.7188 294.2892,462.8125 Q294.2892,464.9063 294.9767,465.9844 Q295.6642,467.0469 297.008,467.0469 Q297.633,467.0469 298.2267,466.7813 Q298.8205,466.5 299.4455,465.9219 L299.4455,468.6406 Z " fill="#000000"/><text fill="#000000" font-family="sans-serif" font-size="14" lengthAdjust="spacing" textLength="49" x="310.4767" y="467.8467">rounds</text><line style="stroke:#181818;stroke-width:0.5;" x1="282.4767" x2="361.4767" y1="479" y2="479"/><text fill="#000000" font-family="sans-serif" font-size="14" lengthAdjust="spacing" textLength="30" x="287.4767" y="495.9951">time</text><line style="stroke:#181818;stroke-width:0.5;" x1="282.4767" x2="361.4767" y1="503.2969" y2="503.2969"/></g><!--class points--><g id="elem_points"><rect codeLine="16" fill="#F1F1F1" height="64.2969" id="points" rx="2.5" ry="2.5" style="stroke:#181818;stroke-width:0.5;" width="75" x="16.4767" y="165"/><ellipse cx="31.4767" cy="181" fill="#ADD1B2" rx="11" ry="11" style="stroke:#181818;stroke-width:1.0;"/><path d="M34.4455,186.6406 Q33.8673,186.9375 33.2267,187.0781 Q32.5861,187.2344 31.883,187.2344 Q29.383,187.2344 28.0548,185.5938 Q26.7423,183.9375 26.7423,180.8125 Q26.7423,177.6875 28.0548,176.0313 Q29.383,174.375 31.883,174.375 Q32.5861,174.375 33.2267,174.5313 Q33.883,174.6875 34.4455,174.9844 L34.4455,177.7031 Q33.8205,177.125 33.2267,176.8594 Q32.633,176.5781 32.008,176.5781 Q30.6642,176.5781 29.9767,177.6563 Q29.2892,178.7188 29.2892,180.8125 Q29.2892,182.9063 29.9767,183.9844 Q30.6642,185.0469 32.008,185.0469 Q32.633,185.0469 33.2267,184.7813 Q33.8205,184.5 34.4455,183.9219 L34.4455,186.6406 Z " fill="#000000"/><text fill="#000000" font-family="sans-serif" font-size="14" lengthAdjust="spacing" textLength="43" x="45.4767" y="185.8467">points</text><line style="stroke:#181818;stroke-width:0.5;" x1="17.4767" x2="90.4767" y1="197" y2="197"/><text fill="#000000" font-family="sans-serif" font-size="14" lengthAdjust="spacing" textLength="39" x="22.4767" y="213.9951">score</text><line style="stroke:#181818;stroke-width:0.5;" x1="17.4767" x2="90.4767" y1="221.2969" y2="221.2969"/></g><!--class positions--><g id="elem_positions"><rect codeLine="9" fill="#F1F1F1" height="64.2969" id="positions" rx="2.5" ry="2.5" style="stroke:#181818;stroke-width:0.5;" width="95" x="135.4767" y="306"/><ellipse cx="150.4767" cy="322" fill="#ADD1B2" rx="11" ry="11" style="stroke:#181818;stroke-width:1.0;"/><path d="M153.4455,327.6406 Q152.8673,327.9375 152.2267,328.0781 Q151.5861,328.2344 150.883,328.2344 Q148.383,328.2344 147.0548,326.5938 Q145.7423,324.9375 145.7423,321.8125 Q145.7423,318.6875 147.0548,317.0313 Q148.383,315.375 150.883,315.375 Q151.5861,315.375 152.2267,315.5313 Q152.883,315.6875 153.4455,315.9844 L153.4455,318.7031 Q152.8205,318.125 152.2267,317.8594 Q151.633,317.5781 151.008,317.5781 Q149.6642,317.5781 148.9767,318.6563 Q148.2892,319.7188 148.2892,321.8125 Q148.2892,323.9063 148.9767,324.9844 Q149.6642,326.0469 151.008,326.0469 Q151.633,326.0469 152.2267,325.7813 Q152.8205,325.5 153.4455,324.9219 L153.4455,327.6406 Z " fill="#000000"/><text fill="#000000" font-family="sans-serif" font-size="14" lengthAdjust="spacing" textLength="63" x="164.4767" y="326.8467">positions</text><line style="stroke:#181818;stroke-width:0.5;" x1="136.4767" x2="229.4767" y1="338" y2="338"/><text fill="#000000" font-family="sans-serif" font-size="14" lengthAdjust="spacing" textLength="37" x="141.4767" y="354.9951">index</text><line style="stroke:#181818;stroke-width:0.5;" x1="136.4767" x2="229.4767" y1="362.2969" y2="362.2969"/></g><!--link hands to players--><g id="link_hands_players"><path codeLine="5" d="M157.3667,84 C145.8167,99.22 137.8167,117.5 144.9767,135 C149.4767,146 152.8882,151.7358 161.1382,160.3958 " fill="none" id="hands-to-players" style="stroke:#181818;stroke-width:1.0;"/><polygon fill="#181818" points="165.2767,164.74,161.965,155.4646,161.8279,161.1198,156.1727,160.9827,165.2767,164.74" style="stroke:#181818;stroke-width:1.0;"/><polygon fill="#000000" points="150.2233,131.5603,152.7126,122.3813,146.8419,122.6712,150.2233,131.5603" style="stroke:#000000;stroke-width:1.0;"/><text fill="#000000" font-family="sans-serif" font-size="13" lengthAdjust="spacing" textLength="40" x="158.9767" y="131.0669">dealer</text><text fill="#000000" font-family="sans-serif" font-size="13" lengthAdjust="spacing" textLength="8" x="148.6733" y="153.963">1</text></g><!--link hands to players--><g id="link_hands_players"><path codeLine="7" d="M200.9167,88.11 C202.1567,97.86 203.2867,108.29 203.9767,118 C205.0667,133.4 205.3783,144.55 205.3983,158.84 " fill="none" id="hands-to-players-1" style="stroke:#181818;stroke-width:1.0;"/><polygon fill="#181818" points="205.4067,164.84,209.3941,155.8344,205.3997,159.84,201.3941,155.8456,205.4067,164.84" style="stroke:#181818;stroke-width:1.0;"/><polygon fill="#000000" points="209.2929,131.5564,211.654,122.3436,205.7879,122.7153,209.2929,131.5564" style="stroke:#000000;stroke-width:1.0;"/><text fill="#000000" font-family="sans-serif" font-size="13" lengthAdjust="spacing" textLength="89" x="217.9767" y="131.0669">active-players</text><text fill="#000000" font-family="sans-serif" font-size="13" lengthAdjust="spacing" textLength="7" x="197.7735" y="153.7101">*</text></g><!--link hands to rounds--><g id="link_hands_rounds"><path codeLine="6" d="M232.5667,59.55 C260.5467,69.88 297.0467,88.27 315.9767,118 C383.5567,224.09 334.6367,274.33 339.9767,400 C340.2967,407.55 341.0567,409.52 339.9767,417 C338.5567,426.84 337.6314,431.5432 334.8014,440.9732 " fill="none" id="hands-to-rounds" style="stroke:#181818;stroke-width:1.0;"/><polygon fill="#181818" points="333.0767,446.72,339.4949,439.2496,334.5139,441.931,331.8325,436.9501,333.0767,446.72" style="stroke:#181818;stroke-width:1.0;"/><polygon fill="#000000" points="356.2712,272.3959,356.7682,262.8984,351.0907,264.4201,356.2712,272.3959" style="stroke:#000000;stroke-width:1.0;"/><text fill="#000000" font-family="sans-serif" font-size="13" lengthAdjust="spacing" textLength="37" x="363.9767" y="272.0669">round</text><text fill="#000000" font-family="sans-serif" font-size="13" lengthAdjust="spacing" textLength="8" x="326.4745" y="435.9391">1</text></g><!--link rounds to hands--><g id="link_rounds_hands"><path codeLine="23" d="M347.2067,446.89 C377.7867,405.44 423.6267,329.19 409.9767,259 C409.5967,257.03 370.6767,140.93 345.9767,118 C313.5167,87.86 271.4226,70.6627 238.3326,60.3027 " fill="none" id="rounds-to-hands" style="stroke:#181818;stroke-width:1.0;"/><polygon fill="#181818" points="232.6067,58.51,240.0005,65.0163,237.3783,60.0039,242.3907,57.3818,232.6067,58.51" style="stroke:#181818;stroke-width:1.0;"/><polygon fill="#000000" points="415.6213,262.7536,415.2444,272.2567,420.9022,270.6633,415.6213,262.7536" style="stroke:#000000;stroke-width:1.0;"/><text fill="#000000" font-family="sans-serif" font-size="13" lengthAdjust="spacing" textLength="39" x="425.9767" y="272.0669">hands</text><text fill="#000000" font-family="sans-serif" font-size="13" lengthAdjust="spacing" textLength="7" x="240.4471" y="56.2974">*</text></g><!--link hands to points--><g id="link_hands_points"><path codeLine="8" d="M157.2867,63.04 C132.1567,74.49 100.1567,92.77 79.9767,118 C69.2867,131.38 64.326,143.5227 60.566,158.8527 " fill="none" id="hands-to-points" style="stroke:#181818;stroke-width:1.0;"/><polygon fill="#181818" points="59.1367,164.68,65.1655,156.8919,60.3278,159.8239,57.3958,154.9862,59.1367,164.68" style="stroke:#181818;stroke-width:1.0;"/><polygon fill="#000000" points="81.4245,130.0852,89.9188,125.8075,85.7822,121.6317,81.4245,130.0852" style="stroke:#000000;stroke-width:1.0;"/><text fill="#000000" font-family="sans-serif" font-size="13" lengthAdjust="spacing" textLength="39" x="93.9767" y="131.0669">points</text><text fill="#000000" font-family="sans-serif" font-size="13" lengthAdjust="spacing" textLength="7" x="52.4635" y="153.8912">*</text></g><!--link points to hands--><g id="link_points_hands"><path codeLine="19" d="M23.7267,164.85 C13.1067,150.09 6.0267,132.54 15.9767,118 C47.6167,71.78 108.861,57.028 151.321,51.838 " fill="none" id="points-to-hands" style="stroke:#181818;stroke-width:1.0;"/><polygon fill="#181818" points="157.2767,51.11,147.8579,48.2315,152.3137,51.7166,148.8285,56.1724,157.2767,51.11" style="stroke:#181818;stroke-width:1.0;"/><polygon fill="#000000" points="24.7197,123.2512,16,127.0484,19.8972,131.4485,24.7197,123.2512" style="stroke:#000000;stroke-width:1.0;"/><text fill="#000000" font-family="sans-serif" font-size="13" lengthAdjust="spacing" textLength="32" x="29.9767" y="131.0669">hand</text><text fill="#000000" font-family="sans-serif" font-size="13" lengthAdjust="spacing" textLength="8" x="141.5883" y="47.5094">1</text></g><!--link positions to players--><g id="link_positions_players"><path codeLine="11" d="M164.9567,305.74 C158.9567,291.43 154.9467,274.29 159.9767,259 C163.4767,248.37 166.0472,242.9101 172.6872,233.9001 " fill="none" id="positions-to-players" style="stroke:#181818;stroke-width:1.0;"/><polygon fill="#181818" points="176.2467,229.07,167.6873,233.9421,173.2804,233.0951,174.1274,238.6881,176.2467,229.07" style="stroke:#181818;stroke-width:1.0;"/><polygon fill="#000000" points="165.5117,262.5951,161.6219,271.2738,167.466,271.9027,165.5117,262.5951" style="stroke:#000000;stroke-width:1.0;"/><text fill="#000000" font-family="sans-serif" font-size="13" lengthAdjust="spacing" textLength="39" x="173.9767" y="272.0669">player</text><text fill="#000000" font-family="sans-serif" font-size="13" lengthAdjust="spacing" textLength="8" x="161.4962" y="249.2813">1</text></g><!--link players to positions--><g id="link_players_positions"><path codeLine="15" d="M216.1667,229.04 C219.8367,243.46 222.0467,260.74 217.9767,276 C215.2467,286.26 213.3291,291.4052 208.0291,300.5752 " fill="none" id="players-to-positions" style="stroke:#181818;stroke-width:1.0;"/><polygon fill="#181818" points="205.0267,305.77,212.9935,299.9795,207.5287,301.441,206.0672,295.9763,205.0267,305.77" style="stroke:#181818;stroke-width:1.0;"/><polygon fill="#000000" points="224.4116,272.5344,228.354,263.8794,222.5138,263.2151,224.4116,272.5344" style="stroke:#000000;stroke-width:1.0;"/><text fill="#000000" font-family="sans-serif" font-size="13" lengthAdjust="spacing" textLength="57" x="233.9767" y="272.0669">positions</text><text fill="#000000" font-family="sans-serif" font-size="13" lengthAdjust="spacing" textLength="7" x="201.6787" y="294.9989">*</text></g><!--link positions to rounds--><g id="link_positions_rounds"><path codeLine="12" d="M173.7667,370.15 C171.1367,385.43 171.0367,403.42 179.9767,417 C202.2667,450.83 241.7843,464.7979 275.2743,471.5279 " fill="none" id="positions-to-rounds" style="stroke:#181818;stroke-width:1.0;"/><polygon fill="#181818" points="281.1567,472.71,273.1212,467.0152,276.2547,471.7249,271.545,474.8584,281.1567,472.71" style="stroke:#181818;stroke-width:1.0;"/><polygon fill="#000000" points="188.5145,412.0997,184.1914,403.6285,180.0378,407.7874,188.5145,412.0997" style="stroke:#000000;stroke-width:1.0;"/><text fill="#000000" font-family="sans-serif" font-size="13" lengthAdjust="spacing" textLength="37" x="193.9767" y="413.0669">round</text><text fill="#000000" font-family="sans-serif" font-size="13" lengthAdjust="spacing" textLength="8" x="265.4533" y="467.3926">1</text></g><!--link rounds to positions--><g id="link_rounds_positions"><path codeLine="22" d="M290.8867,446.91 C268.0167,424.04 241.3084,397.3336 218.4184,374.4336 " fill="none" id="rounds-to-positions" style="stroke:#181818;stroke-width:1.0;"/><polygon fill="#181818" points="214.1767,370.19,217.7102,379.3832,217.7115,373.7263,223.3683,373.7275,214.1767,370.19" style="stroke:#181818;stroke-width:1.0;"/><polygon fill="#000000" points="261.4414,405.0307,265.7586,413.5049,269.9151,409.3489,261.4414,405.0307" style="stroke:#000000;stroke-width:1.0;"/><text fill="#000000" font-family="sans-serif" font-size="13" lengthAdjust="spacing" textLength="57" x="273.9767" y="413.0669">positions</text><text fill="#000000" font-family="sans-serif" font-size="13" lengthAdjust="spacing" textLength="7" x="212.8898" y="390.426">*</text></g><!--link points to positions--><g id="link_points_positions"><path codeLine="18" d="M60.9667,229.31 C65.5667,244.63 72.8567,262.6 83.9767,276 C97.7767,292.62 112.0795,303.1084 130.1695,313.0584 " fill="none" id="points-to-positions" style="stroke:#181818;stroke-width:1.0;"/><polygon fill="#181818" points="135.4267,315.95,129.4686,308.1077,131.0457,313.5403,125.6131,315.1174,135.4267,315.95" style="stroke:#181818;stroke-width:1.0;"/><polygon fill="#000000" points="92.1617,271.4208,88.6656,262.5761,84.1345,266.3202,92.1617,271.4208" style="stroke:#000000;stroke-width:1.0;"/><text fill="#000000" font-family="sans-serif" font-size="13" lengthAdjust="spacing" textLength="50" x="97.9767" y="272.0669">position</text><text fill="#000000" font-family="sans-serif" font-size="13" lengthAdjust="spacing" textLength="8" x="119.5331" y="308.4795">1</text></g><!--SRC=[ZP4n3iCW34LtJc4nLihGjKCkqHDOn5AHKeE0LktjMmW9JiFGATzVNzz-9582nZj5ZuQkv35WSW7OCIapOuoWRyXJrAf-uGB6SGfeah0iJ_JQvc4OGPyrQ3_Zcq99J8Gp1HZXc0hkKMkAEcHE-wRlPlkaeJhzjBESIdXHELHfl8isMSUPgEc68BmUnYBBqbwoWxBkhHrAjkMN5uQuNnos3JkA0gW4QJGkK3FQyRsk2l0JtNvd5c9RfL82Bzby-Jh_SVWnkzkMCny0]--></g></svg>